<svg xmlns="http://www.w3.org/2000/svg" viewBox="0 0 28 32" width="28" height="32">
  <defs>
    <filter id="shadow" x="-20%" y="-20%" width="140%" height="140%">
      <feDropShadow dx="0" dy="2" stdDeviation="1.5" flood-color="#000" flood-opacity="0.25" />
    </filter>
  </defs>
  <!-- Beautiful pin path pointing to bottom (14, 31) -->
  <path d="M14 1 C6.8 1 1 6.8 1 14 C1 22.5 12.5 29.8 13.4 30.4 C13.8 30.6 14.2 30.6 14.6 30.4 C15.5 29.8 27 22.5 27 14 C27 6.8 21.2 1 14 1 Z" fill="#3B82F6" stroke="#ffffff" stroke-width="2" filter="url(#shadow)"/>
  <!-- School Icon in White -->
  <path d="M14 7 L20 11.5 V13 H8 V11.5 L14 7 Z M9 14 H19 V21 C19 21.6 18.6 22 18 22 H10 C9.4 22 9 21.6 9 21 V14 Z M12.5 22 V18.5 H15.5 V22 H12.5 Z" fill="#ffffff"/>
</svg>
